<?xml version="1.0" encoding="utf-8"?>
<!DOCTYPE svg PUBLIC "-//W3C//DTD SVG 1.1//EN" "http://www.w3.org/Graphics/SVG/1.1/DTD/svg11.dtd">
<svg version="1.1" xmlns="http://www.w3.org/2000/svg" xmlns:xlink="http://www.w3.org/1999/xlink" viewBox="0 0 540.5 123.5" enable-background="new 0 0 540.5 123.5" xml:space="preserve">
<!-- <rect x="0" y="0" width="540.5" height="123.5"/> -->
<g>
	<path fill="#000000" d="M145.6,47v11.2c0.7-1,1.6-1.8,2.7-2.5c1-0.7,2.2-1,3.6-1s2.5,0.2,3.5,0.6c1,0.4,1.8,0.9,2.5,1.7
		c1.7,1.6,2.5,3.8,2.5,6.5v11.7h-3V63.5c0-1.8-0.5-3.3-1.6-4.4c-1-1.1-2.4-1.6-4.1-1.6c-1.7,0-3.1,0.6-4.3,1.7
		c-1.2,1.2-1.8,2.6-1.8,4.4v11.6h-3V47H145.6z"/>
	<path fill="#000000" d="M181.1,71.9c-1.6,2.4-4,3.5-7.2,3.5c-2.9,0-5.3-1-7.1-3c-1.8-2-2.7-4.4-2.7-7.4c0-2.9,0.9-5.4,2.7-7.4
		c1.8-2,4.2-3,7.3-3c3,0,5.4,1.2,7,3.6V55h3v20.1h-3V71.9z M174.3,72.7c2.2,0,3.9-0.8,5.1-2.3c1.2-1.4,1.8-3.2,1.8-5.4
		c0-2.2-0.6-4-1.8-5.4c-1.3-1.5-3-2.3-5.1-2.3c-2.1,0-3.9,0.8-5.2,2.3c-1.3,1.4-1.9,3.2-1.9,5.4c0,2.2,0.6,4,1.9,5.4
		C170.4,71.9,172.1,72.7,174.3,72.7z"/>
	<path fill="#000000" d="M203.8,75.1V72c-0.7,1-1.6,1.8-2.7,2.5c-1,0.7-2.2,1-3.6,1c-1.3,0-2.5-0.2-3.5-0.6c-1-0.4-1.8-0.9-2.5-1.7
		c-1.7-1.6-2.5-3.8-2.5-6.5V55h3v11.6c0,1.8,0.5,3.3,1.6,4.4s2.4,1.6,4.1,1.6c1.7,0,3.1-0.6,4.3-1.7c1.2-1.2,1.8-2.6,1.8-4.4V55h3
		v20.1H203.8z"/>
	<path fill="#000000" d="M214.2,75.1V57.7h-4.1V55h4.1v-7.2h3V55h4.6v2.7h-4.6v17.5H214.2z"/>
	<path fill="#000000" d="M233.7,72.7c2.7,0,4.7-1.1,5.8-3.4h3.3c-0.7,1.8-1.8,3.3-3.3,4.4c-1.5,1.1-3.5,1.7-5.9,1.7
		c-3,0-5.5-1-7.4-3c-1.8-2-2.8-4.4-2.8-7.4c0-3,0.9-5.4,2.7-7.4c1.9-2,4.3-3,7.3-3c3,0,5.4,1,7.3,3c1.8,1.9,2.7,4.4,2.7,7.4v1.2
		h-16.8c0.2,1.8,1,3.4,2.2,4.6C230.1,72.1,231.7,72.7,233.7,72.7z M233.5,57.4c-1.8,0-3.4,0.6-4.7,1.7c-1.2,1.1-1.9,2.5-2.2,4.3
		h13.7c-0.3-1.8-1-3.2-2.2-4.3C236.9,58,235.3,57.4,233.5,57.4z"/>
	<path fill="#000000" d="M255.6,49.5c-1.4,0-2.5,0.3-3.2,0.9c-0.7,0.6-1.1,1.6-1.1,3V55h4.7v2.7h-4.7v17.5h-3V57.7h-3.5V55h3.5v-1.8
		c0-2.2,0.7-3.8,2-4.9c1.3-1.1,3.1-1.6,5.5-1.6h0.2v2.9H255.6z"/>
	<path fill="#000000" d="M267.7,54.7c3,0,5.4,1,7.3,3c1.8,1.9,2.7,4.4,2.7,7.4c0,3-0.9,5.4-2.7,7.4c-1.9,2-4.3,3-7.3,3
		c-3,0-5.4-1-7.3-3c-1.8-1.9-2.7-4.4-2.7-7.4c0-3,0.9-5.4,2.7-7.4C262.2,55.7,264.7,54.7,267.7,54.7z M267.7,72.7
		c2.2,0,3.9-0.8,5.1-2.3c1.2-1.4,1.8-3.2,1.8-5.4c0-2.2-0.6-4-1.8-5.4c-1.3-1.5-3-2.3-5.1-2.3s-3.9,0.8-5.1,2.3
		c-1.2,1.4-1.8,3.2-1.8,5.4c0,2.2,0.6,4,1.8,5.4C263.8,71.9,265.5,72.7,267.7,72.7z"/>
	<path fill="#000000" d="M290.3,54.7c3,0,5.4,1,7.3,3c1.8,1.9,2.7,4.4,2.7,7.4c0,3-0.9,5.4-2.7,7.4c-1.9,2-4.3,3-7.3,3s-5.4-1-7.3-3
		c-1.8-1.9-2.7-4.4-2.7-7.4c0-3,0.9-5.4,2.7-7.4C284.9,55.7,287.3,54.7,290.3,54.7z M290.3,72.7c2.2,0,3.9-0.8,5.1-2.3
		c1.2-1.4,1.8-3.2,1.8-5.4c0-2.2-0.6-4-1.8-5.4c-1.3-1.5-3-2.3-5.1-2.3c-2.2,0-3.9,0.8-5.1,2.3c-1.2,1.4-1.8,3.2-1.8,5.4
		c0,2.2,0.6,4,1.8,5.4C286.5,71.9,288.2,72.7,290.3,72.7z"/>
	<path fill="#000000" d="M306.1,75.1V57.7H302V55h4.1v-7.2h3V55h4.6v2.7h-4.6v17.5H306.1z"/>
	<path fill="#000000" d="M329.6,59.1l-5,16h-3.5L314.8,55h3.2l4.8,16.4l5.1-16.4h3.3l5.1,16.4l4.8-16.4h3.2l-6.3,20.1h-3.5
		L329.6,59.1z"/>
	<path fill="#000000" d="M356.2,72.7c2.7,0,4.7-1.1,5.8-3.4h3.3c-0.7,1.8-1.8,3.3-3.3,4.4s-3.5,1.7-5.9,1.7c-3,0-5.5-1-7.4-3
		c-1.8-2-2.8-4.4-2.8-7.4c0-3,0.9-5.4,2.7-7.4c1.9-2,4.3-3,7.3-3s5.4,1,7.3,3c1.8,1.9,2.7,4.4,2.7,7.4v1.2h-16.8
		c0.2,1.8,1,3.4,2.2,4.6C352.6,72.1,354.2,72.7,356.2,72.7z M355.9,57.4c-1.8,0-3.4,0.6-4.7,1.7c-1.2,1.1-1.9,2.5-2.2,4.3h13.7
		c-0.3-1.8-1-3.2-2.2-4.3C359.3,58,357.8,57.4,355.9,57.4z"/>
	<path fill="#000000" d="M385.3,71.9c-1.6,2.4-4,3.5-7.2,3.5c-2.9,0-5.3-1-7.1-3c-1.8-2-2.7-4.4-2.7-7.4c0-2.9,0.9-5.4,2.7-7.4
		c1.8-2,4.2-3,7.3-3s5.4,1.2,7,3.6V55h3v20.1h-3V71.9z M378.5,72.7c2.2,0,3.9-0.8,5.1-2.3c1.2-1.4,1.8-3.2,1.8-5.4
		c0-2.2-0.6-4-1.8-5.4c-1.3-1.5-3-2.3-5.1-2.3c-2.1,0-3.9,0.8-5.2,2.3c-1.3,1.4-1.9,3.2-1.9,5.4c0,2.2,0.6,4,1.9,5.4
		C374.6,71.9,376.3,72.7,378.5,72.7z"/>
	<path fill="#000000" d="M404.1,54.7v3h-0.4c-2.2,0-3.9,0.9-5.3,2.6c-1.3,1.7-1.9,3.6-1.9,6v8.8h-3V55h3v4.9c0.6-2.1,2-3.6,4.2-4.6
		c0.9-0.4,2-0.6,3.2-0.6H404.1z"/>
	<path fill="#000000" d="M409,71v4.1h-3.9V71H409z"/>
	<path fill="#000000" d="M423,72.7c1.3,0,2.4-0.4,3.4-1.1c1-0.7,1.7-1.7,2.2-2.8h3.3c-0.6,2-1.7,3.6-3.4,4.8
		c-1.7,1.2-3.8,1.8-6.1,1.8c-2.9,0-5.3-1-7.2-3c-1.8-2-2.7-4.4-2.7-7.4c0-2.9,0.9-5.4,2.7-7.4c1.8-2,4.2-3,7.2-3
		c2.4,0,4.4,0.6,6.1,1.8c1.6,1.2,2.8,2.8,3.4,4.8h-3.3c-0.5-1.2-1.2-2.1-2.2-2.8c-1-0.7-2.1-1.1-3.4-1.1c-1.3,0-2.4,0.2-3.3,0.6
		c-0.9,0.4-1.7,1-2.3,1.6c-1.3,1.4-2,3.2-2,5.4c0,2.1,0.7,3.9,2,5.4C418.8,71.9,420.7,72.7,423,72.7z"/>
	<path fill="#000000" d="M444.3,54.7c3,0,5.4,1,7.3,3c1.8,1.9,2.7,4.4,2.7,7.4c0,3-0.9,5.4-2.7,7.4c-1.9,2-4.3,3-7.3,3s-5.4-1-7.3-3
		c-1.8-1.9-2.7-4.4-2.7-7.4c0-3,0.9-5.4,2.7-7.4C438.9,55.7,441.3,54.7,444.3,54.7z M444.3,72.7c2.2,0,3.9-0.8,5.1-2.3
		c1.2-1.4,1.8-3.2,1.8-5.4c0-2.2-0.6-4-1.8-5.4c-1.3-1.5-3-2.3-5.1-2.3c-2.2,0-3.9,0.8-5.1,2.3c-1.2,1.4-1.8,3.2-1.8,5.4
		c0,2.2,0.6,4,1.8,5.4C440.5,71.9,442.2,72.7,444.3,72.7z"/>
	<path fill="#000000" d="M461.3,58.1c1.3-2.3,3.4-3.4,6.1-3.4c1.3,0,2.6,0.4,3.7,1.1c1.1,0.7,2,1.7,2.7,3c0.9-1.7,2.3-2.9,4.3-3.6
		c0.8-0.3,1.7-0.4,2.6-0.4c1,0,1.9,0.2,2.8,0.6c0.9,0.4,1.7,0.9,2.4,1.7c1.5,1.6,2.3,3.6,2.3,6v12.1h-3V63c0-1.7-0.5-3-1.4-4.1
		c-0.9-1-2.1-1.5-3.6-1.5c-1.5,0-2.8,0.5-3.8,1.5c-1.1,1-1.6,2.4-1.6,4.2v12h-3V63c0-1.7-0.5-3-1.4-4.1c-0.9-1-2.1-1.5-3.6-1.5
		c-1.5,0-2.8,0.5-3.8,1.5c-1.1,1-1.6,2.4-1.6,4.2v12h-3V55h3V58.1z"/>
</g>
<g>
	<g>
		<g>
			<g>
				<g>
					<path fill="#AAE206" d="M106.8,46.1c4-1.8,7.6-6.1,5.5-10.6c-0.9-1.9-2.5-3.2-4.7-3.3c-2.5-0.2-4.8,1.7-6.4,3.4
						c-6.8,7.1-8.8,18.2-5.4,27.3c0.1,0.2,0.1,0.4,0.2,0.6c0.2,0.5,1,0.3,0.8-0.2c-3.3-8.1-2.1-17.5,2.9-24.6
						c2.3-3.3,7.9-8.6,11.4-3.6c2.9,4.2-1,8.7-4.8,10.5C105.9,45.7,106.3,46.3,106.8,46.1L106.8,46.1z"/>
				</g>
				<g>
					<path fill="#AAE206" d="M95,23.1c-4.4,12-11.5,22.9-20.6,31.9c-0.4,0.4,0.2,0.9,0.6,0.6c9.2-9,16.4-20.1,20.8-32.2
						C95.9,22.8,95.2,22.6,95,23.1L95,23.1z"/>
				</g>
				<g>
					<path fill="#AAE206" d="M81.1,41.3c6.7,1.8,13.2,4.3,19.4,7.5c0.5,0.2,0.9-0.5,0.4-0.7c-6.2-3.2-12.8-5.8-19.6-7.6
						C80.9,40.3,80.6,41.1,81.1,41.3L81.1,41.3z"/>
				</g>
			</g>
			<g>
				<g>
					<path fill="#AAE206" d="M108.6,47.7c1.8-4,6.1-7.5,10.5-4.8c2.3,1.4,2.4,4.1,1.3,6.3c-1.1,2.1-3,3.7-4.9,5.1
						c-7,5.1-16.6,6.2-24.6,2.9c-0.5-0.2-0.7,0.6-0.2,0.8c9.1,3.7,20.1,1.8,27.5-4.8c1.8-1.6,3.5-3.7,3.8-6.2c0.3-2.1-1-4-2.8-5
						c-4.3-2.5-8.9,0.9-10.8,4.8c-0.1,0.2-0.2,0.4-0.3,0.5C107.7,47.8,108.4,48.2,108.6,47.7L108.6,47.7z"/>
				</g>
				<g>
					<path fill="#AAE206" d="M130.8,58.3c-12.1,4.4-23.2,11.6-32.2,20.8c-0.4,0.4,0.2,0.9,0.6,0.6C108,70.6,119,63.5,131,59.1
						C131.4,58.9,131.2,58.1,130.8,58.3L130.8,58.3z"/>
				</g>
				<g>
					<path fill="#AAE206" d="M113.6,72.7c-1.8-6.8-4.4-13.4-7.6-19.6c-0.2-0.5-0.9-0.1-0.7,0.4c3.2,6.2,5.7,12.7,7.5,19.4
						C113,73.4,113.7,73.2,113.6,72.7L113.6,72.7z"/>
				</g>
			</g>
		</g>
		<g>
			<g>
				<g>
					<path fill="#AAE206" d="M78,77.2c-4,1.8-7.6,6.1-5.5,10.6c0.9,1.9,2.5,3.2,4.7,3.3c2.5,0.2,4.8-1.7,6.4-3.4
						c6.8-7.1,8.8-18.2,5.4-27.3c-0.1-0.2-0.1-0.4-0.2-0.6c-0.2-0.5-1-0.3-0.8,0.2c3.3,8.1,2.1,17.5-2.9,24.6
						c-2.3,3.3-7.9,8.6-11.4,3.6c-2.9-4.2,1-8.7,4.8-10.5C78.9,77.7,78.5,77,78,77.2L78,77.2z"/>
				</g>
				<g>
					<path fill="#AAE206" d="M89.8,100.3c4.4-12,11.5-22.9,20.6-31.9c0.4-0.4-0.2-0.9-0.6-0.6c-9.2,9-16.4,20.1-20.8,32.2
						C88.8,100.5,89.6,100.7,89.8,100.3L89.8,100.3z"/>
				</g>
				<g>
					<path fill="#AAE206" d="M103.6,82.1c-6.7-1.8-13.2-4.3-19.4-7.5c-0.5-0.2-0.9,0.5-0.4,0.7c6.2,3.2,12.8,5.8,19.6,7.6
						C103.9,83,104.1,82.3,103.6,82.1L103.6,82.1z"/>
				</g>
			</g>
			<g>
				<g>
					<path fill="#AAE206" d="M76.2,75.7c-1.8,4-6.1,7.5-10.5,4.8c-2.3-1.4-2.4-4.1-1.3-6.3c1.1-2.1,3-3.7,4.9-5.1
						c7-5.1,16.6-6.2,24.6-2.9c0.5,0.2,0.7-0.6,0.2-0.8c-9.1-3.7-20.1-1.8-27.5,4.8c-1.8,1.6-3.5,3.7-3.8,6.2c-0.3,2.1,1,4,2.8,5
						c4.3,2.5,8.9-0.9,10.8-4.8c0.1-0.2,0.2-0.4,0.3-0.5C77.1,75.6,76.4,75.2,76.2,75.7L76.2,75.7z"/>
				</g>
				<g>
					<path fill="#AAE206" d="M54,65.1c12.1-4.4,23.2-11.6,32.2-20.8c0.4-0.4-0.2-0.9-0.6-0.6c-8.9,9.1-19.9,16.2-31.9,20.6
						C53.3,64.5,53.6,65.2,54,65.1L54,65.1z"/>
				</g>
				<g>
					<path fill="#AAE206" d="M71.2,50.7c1.8,6.8,4.4,13.4,7.6,19.6c0.2,0.5,0.9,0.1,0.7-0.4c-3.2-6.2-5.7-12.7-7.5-19.4
						C71.8,49.9,71.1,50.2,71.2,50.7L71.2,50.7z"/>
				</g>
			</g>
		</g>
		<g>
			<g>
				<g>
					<path fill="#AAE206" d="M76.8,47.2c-1.8-4-6.1-7.6-10.6-5.5c-1.9,0.9-3.2,2.5-3.3,4.7c-0.2,2.5,1.7,4.8,3.4,6.4
						c7.1,6.8,18.2,8.8,27.3,5.4c0.2-0.1,0.4-0.1,0.6-0.2c0.5-0.2,0.3-1-0.2-0.8c-8.1,3.3-17.5,2.1-24.6-2.9
						c-3.3-2.3-8.6-7.9-3.6-11.4c4.2-2.9,8.7,1,10.5,4.8C76.4,48.1,77.1,47.6,76.8,47.2L76.8,47.2z"/>
				</g>
				<g>
					<path fill="#AAE206" d="M53.8,59c12,4.4,22.9,11.5,31.9,20.6c0.4,0.4,0.9-0.2,0.6-0.6c-9-9.2-20.1-16.4-32.2-20.8
						C53.6,58,53.3,58.8,53.8,59L53.8,59z"/>
				</g>
				<g>
					<path fill="#AAE206" d="M72,72.8c1.8-6.7,4.3-13.2,7.5-19.4c0.2-0.5-0.5-0.9-0.7-0.4c-3.2,6.2-5.8,12.8-7.6,19.6
						C71,73.1,71.8,73.3,72,72.8L72,72.8z"/>
				</g>
			</g>
			<g>
				<g>
					<path fill="#AAE206" d="M78.4,45.3c-4-1.8-7.5-6.1-4.8-10.5c1.4-2.3,4.1-2.4,6.3-1.3c2.1,1.1,3.7,3,5.1,4.9
						c5.1,7,6.2,16.6,2.9,24.6c-0.2,0.5,0.6,0.7,0.8,0.2c3.7-9.1,1.8-20.1-4.8-27.5c-1.6-1.8-3.7-3.5-6.2-3.8c-2.1-0.3-4,1-5,2.8
						c-2.5,4.3,0.9,8.9,4.8,10.8c0.2,0.1,0.4,0.2,0.5,0.3C78.5,46.2,78.9,45.5,78.4,45.3L78.4,45.3z"/>
				</g>
				<g>
					<path fill="#AAE206" d="M89,23.2c4.4,12.1,11.6,23.2,20.8,32.2c0.4,0.4,0.9-0.2,0.6-0.6C101.3,45.9,94.2,35,89.8,23
						C89.6,22.5,88.8,22.7,89,23.2L89,23.2z"/>
				</g>
				<g>
					<path fill="#AAE206" d="M103.4,40.4c-6.8,1.8-13.4,4.4-19.6,7.6c-0.5,0.2-0.1,0.9,0.4,0.7c6.2-3.2,12.7-5.7,19.4-7.5
						C104.1,41,103.9,40.2,103.4,40.4L103.4,40.4z"/>
				</g>
			</g>
		</g>
		<g>
			<g>
				<g>
					<path fill="#AAE206" d="M107.9,76c1.8,4,6.1,7.6,10.6,5.5c1.9-0.9,3.2-2.5,3.3-4.7c0.2-2.5-1.7-4.8-3.4-6.4
						c-7.1-6.8-18.2-8.8-27.3-5.4c-0.2,0.1-0.4,0.1-0.6,0.2c-0.5,0.2-0.3,1,0.2,0.8c8.1-3.3,17.5-2.1,24.6,2.9
						c3.3,2.3,8.6,7.9,3.6,11.4c-4.2,2.9-8.7-1-10.5-4.8C108.4,75.1,107.7,75.5,107.9,76L107.9,76z"/>
				</g>
				<g>
					<path fill="#AAE206" d="M131,64.2c-12-4.4-22.9-11.5-31.9-20.6c-0.4-0.4-0.9,0.2-0.6,0.6c9,9.2,20.1,16.4,32.2,20.8
						C131.2,65.1,131.4,64.4,131,64.2L131,64.2z"/>
				</g>
				<g>
					<path fill="#AAE206" d="M112.8,50.3c-1.8,6.7-4.3,13.2-7.5,19.4c-0.2,0.5,0.5,0.9,0.7,0.4c3.2-6.2,5.8-12.8,7.6-19.6
						C113.7,50,113,49.8,112.8,50.3L112.8,50.3z"/>
				</g>
			</g>
			<g>
				<g>
					<path fill="#AAE206" d="M106.4,77.8c4,1.8,7.5,6.1,4.8,10.5c-1.4,2.3-4.1,2.4-6.3,1.3c-2.1-1.1-3.7-3-5.1-4.9
						c-5.1-7-6.2-16.6-2.9-24.6c0.2-0.5-0.6-0.7-0.8-0.2c-3.7,9.1-1.8,20.1,4.8,27.5c1.6,1.8,3.7,3.5,6.2,3.8c2.1,0.3,4-1,5-2.8
						c2.5-4.3-0.9-8.9-4.8-10.8c-0.2-0.1-0.4-0.2-0.5-0.3C106.3,76.9,105.9,77.6,106.4,77.8L106.4,77.8z"/>
				</g>
				<g>
					<path fill="#AAE206" d="M95.8,99.9c-4.4-12.1-11.6-23.2-20.8-32.2c-0.4-0.4-0.9,0.2-0.6,0.6c9.1,8.9,16.2,19.9,20.6,31.9
						C95.2,100.6,95.9,100.4,95.8,99.9L95.8,99.9z"/>
				</g>
				<g>
					<path fill="#AAE206" d="M81.4,82.8c6.8-1.8,13.4-4.4,19.6-7.6c0.5-0.2,0.1-0.9-0.4-0.7c-6.2,3.2-12.7,5.7-19.4,7.5
						C80.6,82.1,80.9,82.9,81.4,82.8L81.4,82.8z"/>
				</g>
			</g>
		</g>
	</g>
	<g>
		<g>
			<g>
				<g>
					<path fill="#AAE206" d="M113.5,60.9c4.4,1.6,10,0.9,11.6-4.1c0.6-2,0.1-4-1.4-5.4c-1.6-1.5-4-1.8-6.1-1.9
						c-9.6-0.2-18.9,6-23.2,14.5c-0.3,0.5-0.5,1.1-0.7,1.6c-0.2,0.5,0.5,0.9,0.7,0.4c3.4-8.1,11-13.9,19.6-15.4
						c3.7-0.6,10.5-0.7,10.6,4.6c0,2.2-1.4,4.1-3.3,5c-2.3,1.2-5.2,0.8-7.6-0.1C113.3,59.9,113,60.7,113.5,60.9L113.5,60.9z"/>
				</g>
				<g>
					<path fill="#AAE206" d="M121.5,36.2c-11.6,5.4-24.3,8.1-37.1,7.9c-0.5,0-0.5,0.8,0,0.8c12.9,0.1,25.8-2.6,37.5-8.1
						C122.3,36.7,121.9,36,121.5,36.2L121.5,36.2z"/>
				</g>
				<g>
					<path fill="#AAE206" d="M98.9,39.3c3.5,6,6.3,12.4,8.4,19c0.2,0.5,0.9,0.3,0.8-0.2c-2.1-6.7-5-13.1-8.5-19.2
						C99.3,38.4,98.6,38.8,98.9,39.3L98.9,39.3z"/>
				</g>
			</g>
			<g>
				<g>
					<path fill="#AAE206" d="M113.7,63.3c2.3-0.9,4.7-1.1,7.1-0.3c2.2,0.8,3.7,3,3.8,5.3c0.2,5.3-7.1,5.1-10.6,4.6
						c-8.6-1.4-16.2-7.4-19.6-15.4c-0.2-0.5-0.9-0.1-0.7,0.4c3.8,8.9,12.6,15.2,22.2,16c4,0.3,9.6-0.8,9.5-5.9c-0.1-2-1.3-3.9-2.9-5
						c-2-1.4-4.8-1.5-7.1-1c-0.6,0.1-1.3,0.3-1.9,0.6C113,62.7,113.3,63.4,113.7,63.3L113.7,63.3z"/>
				</g>
				<g>
					<path fill="#AAE206" d="M121.9,86.4c-11.7-5.4-24.6-8.2-37.5-8.1c-0.5,0-0.5,0.8,0,0.8c12.8-0.1,25.5,2.6,37.1,7.9
						C121.9,87.3,122.3,86.6,121.9,86.4L121.9,86.4z"/>
				</g>
				<g>
					<path fill="#AAE206" d="M99.5,84.5c3.5-6.1,6.4-12.5,8.5-19.2c0.2-0.5-0.6-0.7-0.8-0.2c-2.1,6.6-4.9,13-8.4,19
						C98.6,84.5,99.3,84.9,99.5,84.5L99.5,84.5z"/>
				</g>
			</g>
		</g>
		<g>
			<g>
				<g>
					<path fill="#AAE206" d="M71.2,62.5c-4.4-1.6-10-0.9-11.6,4.1c-0.6,2-0.1,4,1.4,5.4c1.6,1.5,4,1.8,6.1,1.9
						c9.6,0.2,18.9-6,23.2-14.5c0.3-0.5,0.5-1.1,0.7-1.6c0.2-0.5-0.5-0.9-0.7-0.4c-3.4,8.1-11,13.9-19.6,15.4
						c-3.7,0.6-10.5,0.7-10.6-4.6c0-2.2,1.4-4.1,3.3-5c2.3-1.2,5.2-0.8,7.6,0.1C71.5,63.4,71.7,62.7,71.2,62.5L71.2,62.5z"/>
				</g>
				<g>
					<path fill="#AAE206" d="M63.2,87.1c11.6-5.4,24.3-8.1,37.1-7.9c0.5,0,0.5-0.8,0-0.8c-12.9-0.1-25.8,2.6-37.5,8.1
						C62.4,86.6,62.8,87.3,63.2,87.1L63.2,87.1z"/>
				</g>
				<g>
					<path fill="#AAE206" d="M85.9,84.1c-3.5-6-6.3-12.4-8.4-19c-0.2-0.5-0.9-0.3-0.8,0.2c2.1,6.7,5,13.1,8.5,19.2
						C85.4,84.9,86.1,84.5,85.9,84.1L85.9,84.1z"/>
				</g>
			</g>
			<g>
				<g>
					<path fill="#AAE206" d="M71,60.1c-2.3,0.9-4.7,1.1-7.1,0.3c-2.2-0.8-3.7-3-3.8-5.3c-0.2-5.3,7.1-5.1,10.6-4.6
						c8.6,1.4,16.2,7.4,19.6,15.4c0.2,0.5,0.9,0.1,0.7-0.4c-3.8-8.9-12.6-15.2-22.2-16c-4-0.3-9.6,0.8-9.5,5.9c0.1,2,1.3,3.9,2.9,5
						c2,1.4,4.8,1.5,7.1,1c0.6-0.1,1.3-0.3,1.9-0.6C71.7,60.7,71.5,59.9,71,60.1L71,60.1z"/>
				</g>
				<g>
					<path fill="#AAE206" d="M62.8,36.9c11.7,5.4,24.6,8.2,37.5,8.1c0.5,0,0.5-0.8,0-0.8c-12.8,0.1-25.5-2.6-37.1-7.9
						C62.8,36,62.4,36.7,62.8,36.9L62.8,36.9z"/>
				</g>
				<g>
					<path fill="#AAE206" d="M85.2,38.9c-3.5,6.1-6.4,12.5-8.5,19.2c-0.2,0.5,0.6,0.7,0.8,0.2c2.1-6.6,4.9-13,8.4-19
						C86.1,38.8,85.4,38.4,85.2,38.9L85.2,38.9z"/>
				</g>
			</g>
		</g>
		<g>
			<g>
				<g>
					<path fill="#AAE206" d="M91.6,40.4c1.6-4.4,0.9-10-4.1-11.6c-2-0.6-4-0.1-5.4,1.4c-1.5,1.6-1.8,4-1.9,6.1
						c-0.2,9.6,6,18.9,14.5,23.2c0.5,0.3,1.1,0.5,1.6,0.7c0.5,0.2,0.9-0.5,0.4-0.7c-8.1-3.4-13.9-11-15.4-19.6
						c-0.6-3.7-0.7-10.5,4.6-10.6c2.2,0,4.1,1.4,5,3.3c1.2,2.3,0.8,5.2-0.1,7.6C90.7,40.7,91.4,40.9,91.6,40.4L91.6,40.4z"/>
				</g>
				<g>
					<path fill="#AAE206" d="M67,32.5c5.4,11.6,8.1,24.3,7.9,37.1c0,0.5,0.8,0.5,0.8,0c0.1-12.9-2.6-25.8-8.1-37.5
						C67.5,31.6,66.8,32,67,32.5L67,32.5z"/>
				</g>
				<g>
					<path fill="#AAE206" d="M70,55.1c6-3.5,12.4-6.3,19-8.4c0.5-0.2,0.3-0.9-0.2-0.8c-6.7,2.1-13.1,5-19.2,8.5
						C69.2,54.7,69.6,55.3,70,55.1L70,55.1z"/>
				</g>
			</g>
			<g>
				<g>
					<path fill="#AAE206" d="M94,40.2c-0.9-2.3-1.1-4.7-0.3-7.1c0.8-2.2,3-3.7,5.3-3.8c5.3-0.2,5.1,7.1,4.6,10.6
						c-1.4,8.6-7.4,16.2-15.4,19.6c-0.5,0.2-0.1,0.9,0.4,0.7c8.9-3.8,15.2-12.6,16-22.2c0.3-4-0.8-9.6-5.9-9.5c-2,0.1-3.9,1.3-5,2.9
						c-1.4,2-1.5,4.8-1,7.1c0.1,0.6,0.3,1.3,0.6,1.9C93.4,40.9,94.2,40.7,94,40.2L94,40.2z"/>
				</g>
				<g>
					<path fill="#AAE206" d="M117.2,32.1c-5.4,11.7-8.2,24.6-8.1,37.5c0,0.5,0.8,0.5,0.8,0c-0.1-12.8,2.6-25.5,7.9-37.1
						C118.1,32,117.4,31.6,117.2,32.1L117.2,32.1z"/>
				</g>
				<g>
					<path fill="#AAE206" d="M115.2,54.4c-6.1-3.5-12.5-6.4-19.2-8.5c-0.5-0.2-0.7,0.6-0.2,0.8c6.6,2.1,13,4.9,19,8.4
						C115.3,55.3,115.7,54.7,115.2,54.4L115.2,54.4z"/>
				</g>
			</g>
		</g>
		<g>
			<g>
				<g>
					<path fill="#AAE206" d="M93.3,82.8c-1.6,4.4-0.9,10,4.1,11.6c2,0.6,4,0.1,5.4-1.4c1.5-1.6,1.8-4,1.9-6.1
						c0.2-9.6-6-18.9-14.5-23.2c-0.5-0.3-1.1-0.5-1.6-0.7c-0.5-0.2-0.9,0.5-0.4,0.7c8.1,3.4,13.9,11,15.4,19.6
						c0.6,3.7,0.7,10.5-4.6,10.6c-2.2,0-4.1-1.4-5-3.3c-1.2-2.3-0.8-5.2,0.1-7.6C94.2,82.5,93.4,82.3,93.3,82.8L93.3,82.8z"/>
				</g>
				<g>
					<path fill="#AAE206" d="M117.9,90.7c-5.4-11.6-8.1-24.3-7.9-37.1c0-0.5-0.8-0.5-0.8,0c-0.1,12.9,2.6,25.8,8.1,37.5
						C117.4,91.6,118.1,91.2,117.9,90.7L117.9,90.7z"/>
				</g>
				<g>
					<path fill="#AAE206" d="M114.8,68.1c-6,3.5-12.4,6.3-19,8.4c-0.5,0.2-0.3,0.9,0.2,0.8c6.7-2.1,13.1-5,19.2-8.5
						C115.7,68.5,115.3,67.8,114.8,68.1L114.8,68.1z"/>
				</g>
			</g>
			<g>
				<g>
					<path fill="#AAE206" d="M90.8,83c0.9,2.3,1.1,4.7,0.3,7.1c-0.8,2.2-3,3.7-5.3,3.8c-5.3,0.2-5.1-7.1-4.6-10.6
						c1.4-8.6,7.4-16.2,15.4-19.6c0.5-0.2,0.1-0.9-0.4-0.7c-8.9,3.8-15.2,12.6-16,22.2c-0.3,4,0.8,9.6,5.9,9.5c2-0.1,3.9-1.3,5-2.9
						c1.4-2,1.5-4.8,1-7.1c-0.1-0.6-0.3-1.3-0.6-1.9C91.4,82.3,90.7,82.5,90.8,83L90.8,83z"/>
				</g>
				<g>
					<path fill="#AAE206" d="M67.7,91.1c5.4-11.7,8.2-24.6,8.1-37.5c0-0.5-0.8-0.5-0.8,0c0.1,12.8-2.6,25.5-7.9,37.1
						C66.8,91.2,67.5,91.6,67.7,91.1L67.7,91.1z"/>
				</g>
				<g>
					<path fill="#AAE206" d="M69.6,68.8c6.1,3.5,12.5,6.4,19.2,8.5c0.5,0.2,0.7-0.6,0.2-0.8c-6.6-2.1-13-4.9-19-8.4
						C69.6,67.8,69.2,68.5,69.6,68.8L69.6,68.8z"/>
				</g>
			</g>
		</g>
	</g>
</g>
</svg>
